<?xml version="1.0" encoding="UTF-8"?>
<svg width="66px" height="71px" viewBox="0 0 66 71" version="1.1" xmlns="http://www.w3.org/2000/svg" xmlns:xlink="http://www.w3.org/1999/xlink">
    <title>Group</title>
    <defs>
        <polygon id="path-1" points="2.91596523e-14 -1.50717703e-15 5.90886782 18.9914821 48.8300719 19 54.7317073 0.00851792551"></polygon>
    </defs>
    <g id="Explorations" stroke="none" stroke-width="1" fill="none" fill-rule="evenodd">
        <g id="Artboard" transform="translate(-126, -339)">
            <g id="Group-2" transform="translate(126, 339)">
                <g id="Group" transform="translate(0, 0)">
                    <path d="M21.4815141,54 C23.8718243,59.1049805 25.416858,64.4796536 26.1166153,70.1240193 L26.1167361,70.1240042 C26.1791588,70.6235103 26.6031509,70.99875 27.1065407,70.9999969 L38.8564876,70.9999969 C39.3598774,70.99875 39.7838695,70.6235103 39.8462922,70.1240042 C40.5461703,64.4796536 42.091204,59.1049805 44.4815141,54 L21.4815141,54 Z" id="Mask" fill="#FFFFFF"></path>
                    <g id="Group-9" transform="translate(5.6341, 14)">
                        <mask id="mask-2" fill="white">
                            <use xlink:href="#path-1"></use>
                        </mask>
                        <g id="Mask"></g>
                        <polygon id="Path" fill="#FFFFFF" opacity="0.699999988" mask="url(#mask-2)" points="41.460295 0.00511538462 54.7317073 0.00729886725 49.1711107 19.0051154 38.4268293 19.0037574"></polygon>
                        <polygon id="Rectangle-Copy-5" fill="#FFFFFF" opacity="0.699999988" mask="url(#mask-2)" points="15.8902439 4.56162885e-14 39.6614986 -2.76861867e-15 36.4419864 19 19.1097561 19"></polygon>
                        <polygon id="Rectangle-Copy-12" fill="#FFFFFF" opacity="0.400000006" mask="url(#mask-2)" points="15.8902439 4.56162885e-14 39.6463415 -2.76861867e-15 19.1097561 19"></polygon>
                        <polygon id="Path" fill="#FFFFFF" opacity="0.699999988" mask="url(#mask-2)" points="2.54583858e-14 -1.50717703e-15 14.0680217 0.00226347936 17.1097561 19 5.5825869 18.9987218"></polygon>
                    </g>
                    <path d="M4.10221638,-5.54578844e-16 L61.8977836,3.92442987e-16 C63.3242136,-2.28020677e-16 63.8414716,0.14852098 64.3629531,0.427412332 C64.8844346,0.706303685 65.2936963,1.11556541 65.5725877,1.6370469 C65.851479,2.15852839 66,2.67578638 66,4.10221638 L66,6.89778362 C66,8.32421362 65.851479,8.84147161 65.5725877,9.3629531 C65.2936963,9.88443459 64.8844346,10.2936963 64.3629531,10.5725877 C63.8414716,10.851479 63.3242136,11 61.8977836,11 L4.10221638,11 C2.67578638,11 2.15852839,10.851479 1.6370469,10.5725877 C1.11556541,10.2936963 0.706303685,9.88443459 0.427412332,9.3629531 C0.14852098,8.84147161 -4.1199038e-16,8.32421362 -4.99334027e-16,6.89778362 L3.37198169e-16,4.10221638 C-1.95921847e-16,2.67578638 0.14852098,2.15852839 0.427412332,1.6370469 C0.706303685,1.11556541 1.11556541,0.706303685 1.6370469,0.427412332 C2.15852839,0.14852098 2.67578638,-3.7989155e-16 4.10221638,-5.54578844e-16 Z" id="Mask" fill="#FFFFFF"></path>
                    <path d="M59.2758633,44.0282115 L55.6445737,49.1843283 C55.1307304,49.9139413 54.912,50.1471172 54.6303594,50.3719869 C54.3487187,50.5968566 54.0461143,50.7538599 53.700094,50.8546457 C53.3540738,50.9554316 53.0374863,51 52.1450906,51 L13.8549094,51 C12.9625137,51 12.6459262,50.9554316 12.299906,50.8546457 C11.9538857,50.7538599 11.6512813,50.5968566 11.3696406,50.3719869 C11.088,50.1471172 10.8692696,49.9139413 10.3554263,49.1843283 L6.72413673,44.0282115 L6.70343915,43.9994458 L59.2967865,43.9984458 C59.2899284,44.0082215 59.2829548,44.0181421 59.2758633,44.0282115 Z" id="Combined-Shape" fill="#FFFFFF"></path>
                    <path d="M55.8769992,35 C56.8353844,35 57.1837826,35.083534 57.545319,35.2483123 C57.9068554,35.4130906 58.2032945,35.6591132 58.4318775,35.9840905 C58.6604606,36.3090679 58.8067696,36.6361043 58.983389,37.5780746 L59.7682362,41.7639262 C59.7849064,41.8528342 59.7991181,41.9317958 59.8111742,42.0026585 L6.18882578,42.0026585 C6.20088185,41.9317958 6.21509359,41.8528342 6.23176383,41.7639262 L7.01661102,37.5780746 C7.19323044,36.6361043 7.33953944,36.3090679 7.56812246,35.9840905 C7.79670549,35.6591132 8.09314463,35.4130906 8.45468103,35.2483123 C8.81621744,35.083534 9.16461557,35 10.1230008,35 L55.8769992,35 Z" id="Combined-Shape" fill="#FFFFFF"></path>
                </g>
            </g>
        </g>
    </g>
</svg>